<?xml version='1.0' encoding='UTF-8'?>
<svg xmlns="http://www.w3.org/2000/svg" xmlns:xlink="http://www.w3.org/1999/xlink" width="702px" height="287px" viewBox="0 0 702 287" version="1.2" xmlns="http://www.w3.org/2000/svg" baseProfile="tiny">
    <title>Logo</title>
    <g id="Symbols" stroke="none" stroke-width="1" fill="none" fill-rule="evenodd">
        <g id="Logo" transform="translate(0.24, 0.1)" fill-rule="nonzero">
            <g id="C" transform="translate(56.76, 53.9)" fill="#F79628">
                <path d="M75.3937947,156 C59.6420048,156 46.1455847,152.808276 34.9045346,146.424828 C23.6634845,140.041379 15.0357995,131.004138 9.02147971,119.313103 C3.0071599,107.622069 0,93.8151724 0,77.8924138 C0,65.9862069 1.71837709,55.2634483 5.15513126,45.7241379 C8.59188544,36.1848276 13.5322196,28.0082759 19.9761337,21.1944828 C26.4200477,14.3806897 34.3317422,9.14482759 43.7112172,5.48689655 C53.0906921,1.82896552 63.6515513,0 75.3937947,0 C83.2696897,0 91.0023866,1.00413793 98.5918854,3.01241379 C106.181384,5.02068966 112.840095,7.88965517 118.568019,11.6193103 C121.575179,13.4841379 123.579952,15.7434483 124.582339,18.3972414 C125.584726,21.0510345 125.799523,23.6331034 125.22673,26.1434483 C124.653938,28.6537931 123.472554,30.7696552 121.682578,32.4910345 C119.892601,34.2124138 117.673031,35.1806897 115.023866,35.3958621 C112.374702,35.6110345 109.47494,34.7144828 106.324582,32.7062069 C101.885442,29.8372414 97.0883055,27.7572414 91.9331742,26.4662069 C86.778043,25.1751724 81.5513126,24.5296552 76.2529833,24.5296552 C66.0859189,24.5296552 57.4940334,26.6096552 50.477327,30.7696552 C43.4606205,34.9296552 38.1622912,40.9544828 34.5823389,48.8441379 C31.0023866,56.7337931 29.2124105,66.4165517 29.2124105,77.8924138 C29.2124105,89.2248276 31.0023866,98.9075862 34.5823389,106.94069 C38.1622912,114.973793 43.4606205,121.070345 50.477327,125.230345 C57.4940334,129.390345 66.0859189,131.470345 76.2529833,131.470345 C81.6945107,131.470345 87.0644391,130.788966 92.3627685,129.426207 C97.6610979,128.063448 102.673031,125.947586 107.398568,123.078621 C110.548926,121.213793 113.377088,120.388966 115.883055,120.604138 C118.389021,120.81931 120.501193,121.715862 122.21957,123.293793 C123.937947,124.871724 125.083532,126.844138 125.656325,129.211034 C126.229117,131.577931 126.085919,134.016552 125.22673,136.526897 C124.367542,139.037241 122.649165,141.224828 120.071599,143.089655 C114.343675,147.249655 107.505967,150.441379 99.5584726,152.664828 C91.6109785,154.888276 83.5560859,156 75.3937947,156 Z" id="Path"/>
            </g>
            <g id="C" transform="translate(104.76, 129.9) rotate(-360) translate(-104.76, -129.9)translate(-0.24, -0.1)" fill="#F79628">
                <path d="M125.656325,260 C99.4033413,260 76.9093079,254.68046 58.1742243,244.041379 C39.4391408,233.402299 25.0596659,218.34023 15.0357995,198.855172 C5.01193317,179.370115 0,156.358621 0,129.82069 C0,109.977011 2.86396181,92.1057471 8.59188544,76.2068966 C14.3198091,60.308046 22.5536993,46.6804598 33.2935561,35.3241379 C44.0334129,23.9678161 57.2195704,15.2413793 72.8520286,9.14482759 C88.4844869,3.04827586 106.085919,0 125.656325,0 C138.782816,0 151.670644,1.67356322 164.319809,5.02068966 C176.968974,8.36781609 188.066826,13.1494253 197.613365,19.3655172 C202.625298,22.4735632 205.966587,26.2390805 207.637232,30.662069 C209.307876,35.0850575 209.665871,39.3885057 208.711217,43.5724138 C207.756563,47.7563218 205.787589,51.2827586 202.804296,54.1517241 C199.821002,57.0206897 196.121718,58.6344828 191.706444,58.9931034 C187.291169,59.3517241 182.458234,57.8574713 177.207637,54.5103448 C169.809069,49.7287356 161.813842,46.262069 153.221957,44.1103448 C144.630072,41.9586207 135.918854,40.8827586 127.088305,40.8827586 C110.143198,40.8827586 95.823389,44.3494253 84.1288783,51.2827586 C72.4343675,58.216092 63.6038186,68.2574713 57.6372315,81.4068966 C51.6706444,94.5563218 48.6873508,110.694253 48.6873508,129.82069 C48.6873508,148.708046 51.6706444,164.845977 57.6372315,178.234483 C63.6038186,191.622989 72.4343675,201.783908 84.1288783,208.717241 C95.823389,215.650575 110.143198,219.117241 127.088305,219.117241 C136.157518,219.117241 145.107399,217.981609 153.937947,215.710345 C162.768496,213.43908 171.121718,209.912644 178.997613,205.131034 C184.24821,202.022989 188.961814,200.648276 193.138425,201.006897 C197.315036,201.365517 200.835322,202.85977 203.699284,205.489655 C206.563246,208.11954 208.472554,211.406897 209.427208,215.351724 C210.381862,219.296552 210.143198,223.36092 208.711217,227.544828 C207.279236,231.728736 204.415274,235.374713 200.119332,238.482759 C190.572792,245.416092 179.176611,250.735632 165.930788,254.441379 C152.684964,258.147126 139.260143,260 125.656325,260 Z" id="Path"/>
            </g>
            <g id="Pay" transform="translate(461.76, 158.4) rotate(-360) translate(-461.76, -158.4)translate(221.76, 29.9)" fill="#000000">
                <path d="M22.2867107,205.233319 C15.1085215,205.233319 9.59952235,203.225413 5.75971341,199.209601 C1.91990447,195.193789 0,189.583485 0,182.378689 L0,22.6569101 C0,15.2603861 1.96765958,9.63510339 5.90297873,5.78106204 C9.83829788,1.92702068 15.3950521,0 22.5732414,0 L92.3479273,0 C114.864459,0 132.244333,5.72564053 144.487548,17.1769216 C156.730763,28.6282027 162.852371,44.5034679 162.852371,64.8027172 C162.852371,85.1019665 156.730763,101.010185 144.487548,112.527373 C132.244333,124.04456 114.864459,129.803154 92.3479273,129.803154 L44.4838806,129.803154 L44.4838806,182.378689 C44.4838806,189.583485 42.6266547,195.193789 38.9122029,199.209601 C35.1977512,203.225413 29.6559204,205.233319 22.2867107,205.233319 Z M44.4838806,95.080833 L84.8220212,95.080833 C96.3727873,95.080833 105.147042,92.5321927 111.144784,87.4349122 C117.142527,82.3376317 120.141399,74.7935667 120.141399,64.8027172 C120.141399,54.7519525 117.142527,47.225862 111.144784,42.2244457 C105.147042,37.2230294 96.3727873,34.7223213 84.8220212,34.7223213 L44.4838806,34.7223213 L44.4838806,95.080833 Z" id="Shape"/>
                <path d="M232.992128,205.808505 C222.506898,205.808505 213.196145,203.813331 205.059869,199.822982 C196.923593,195.832634 190.566194,190.407318 185.987674,183.547035 C181.409153,176.686751 179.119892,168.918753 179.119892,160.243041 C179.119892,149.889705 181.794178,141.708293 187.14275,135.698804 C192.491322,129.689316 201.152904,125.357451 213.127497,122.70321 C225.102089,120.04897 241.064233,118.721849 261.013929,118.721849 L276.056787,118.721849 L276.056787,141.140597 L261.121378,141.140597 C251.430076,141.140597 243.604208,141.700803 237.643774,142.821216 C231.68334,143.941629 227.387619,145.74133 224.756611,148.220319 C222.125603,150.699308 220.810099,154.070284 220.810099,158.333246 C220.810099,163.761558 222.692695,168.203516 226.457887,171.659122 C230.223078,175.114728 235.572396,176.84253 242.505841,176.84253 C248.030509,176.84253 252.944062,175.567087 257.246499,173.0162 C261.548935,170.465313 264.983572,166.946796 267.550409,162.46065 C270.117246,157.974504 271.400664,152.795589 271.400664,146.923905 L271.400664,113.760876 C271.400664,105.435667 269.478521,99.5093107 265.634235,95.9818069 C261.789949,92.454303 255.231084,90.6905511 245.957639,90.6905511 C240.835904,90.6905511 235.255273,91.2867068 229.215744,92.479018 C223.176216,93.6713293 216.592727,95.7473889 209.465277,98.7071968 C205.116578,100.492668 201.333478,100.866389 198.115978,99.8283589 C194.898478,98.7903291 192.420435,96.8782872 190.681851,94.0922332 C188.943267,91.3061792 188.088898,88.2347793 188.118745,84.8780336 C188.148592,81.5212879 189.137272,78.2731384 191.084785,75.1335851 C193.032298,71.9940318 196.178911,69.6318774 200.524626,68.047122 C209.433938,64.5241118 217.872414,62.0713357 225.840055,60.6887939 C233.807696,59.306252 241.07468,58.6149811 247.641007,58.6149811 C262.352564,58.6149811 274.463706,60.798888 283.974434,65.1667016 C293.485162,69.5345153 300.601419,76.1798532 305.323205,85.1027154 C310.044991,94.0255776 312.405884,105.467122 312.405884,119.42735 L312.405884,183.13362 C312.405884,190.2785 310.689685,195.748004 307.257286,199.54213 C303.824888,203.336256 298.865819,205.233319 292.380079,205.233319 C285.894339,205.233319 280.886768,203.336256 277.357367,199.54213 C273.827967,195.748004 272.063266,190.2785 272.063266,183.13362 L272.063266,172.483704 L274.086889,174.375525 C272.928827,180.786444 270.496302,186.330842 266.789312,191.008716 C263.082322,195.686591 258.373221,199.322691 252.662008,201.917016 C246.950796,204.511342 240.39417,205.808505 232.992128,205.808505 Z" id="Path"/>
                <path d="M387.039121,257 C382.060652,257 377.979829,255.68711 374.796652,253.061329 C371.613476,250.435548 369.693572,246.970955 369.036939,242.66755 C368.380306,238.364145 369.12051,233.809845 371.257551,229.004651 L390.562553,186.476885 L390.562553,204.136872 L339.940649,87.3832354 C337.860317,82.383317 337.182045,77.7466341 337.905834,73.4731868 C338.629622,69.1997395 340.77114,65.7508742 344.330388,63.1265911 C347.889635,60.502308 352.755433,59.1901665 358.92778,59.1901665 C364.159949,59.1901665 368.367621,60.391465 371.550798,62.7940621 C374.733974,65.1966592 377.61495,69.8086271 380.193725,76.6299657 L414.031202,162.65163 L404.893561,162.65163 L439.859253,76.2525003 C442.438028,69.7427204 445.429438,65.2715531 448.833482,62.8389985 C452.237525,60.4064438 456.776499,59.1901665 462.450402,59.1901665 C467.372163,59.1901665 471.313451,60.502308 474.274268,63.1265911 C477.235084,65.7508742 479.062463,69.1667861 479.756405,73.3743268 C480.450346,77.5818675 479.661641,82.1855971 477.390288,87.1855155 L410.006342,240.494877 C407.10522,246.944742 403.907866,251.308062 400.414282,253.584837 C396.920697,255.861612 392.462311,257 387.039121,257 Z" id="Path"/>
            </g>
        </g>
    </g>
</svg>
